<svg width="177" height="51" viewBox="0 0 177 51" fill="none" xmlns="http://www.w3.org/2000/svg">
<path d="M34.316 25.972C34.628 25.972 34.868 26.116 35.036 26.404C35.228 26.692 35.324 27.088 35.324 27.592C35.324 28.528 35.096 29.272 34.64 29.824C33.488 31.216 32.324 32.296 31.148 33.064C29.972 33.808 28.58 34.18 26.972 34.18C25.412 34.18 24.08 33.76 22.976 32.92C21.896 32.08 20.864 30.64 19.88 28.6C19.088 26.968 18.464 25.768 18.008 25C17.552 24.208 17.096 23.644 16.64 23.308C16.208 22.972 15.668 22.768 15.02 22.696C14.924 23.2 14.648 24.784 14.192 27.448C14 28.648 13.88 29.38 13.832 29.644C13.592 31.108 13.112 32.236 12.392 33.028C11.672 33.796 10.58 34.18 9.116 34.18C7.508 34.18 6.08 33.712 4.832 32.776C3.608 31.816 2.66 30.496 1.988 28.816C1.316 27.112 0.98 25.18 0.98 23.02C0.98 18.988 1.676 15.508 3.068 12.58C4.484 9.652 6.452 7.42 8.972 5.884C11.516 4.324 14.444 3.544 17.756 3.544C20.06 3.544 21.992 3.892 23.552 4.588C25.112 5.284 26.264 6.244 27.008 7.468C27.776 8.692 28.16 10.072 28.16 11.608C28.16 12.952 27.836 14.272 27.188 15.568C26.564 16.84 25.616 17.968 24.344 18.952C23.072 19.936 21.524 20.668 19.7 21.148C20.852 21.46 21.74 21.964 22.364 22.66C22.988 23.356 23.612 24.376 24.236 25.72C24.908 27.16 25.568 28.216 26.216 28.888C26.888 29.56 27.656 29.896 28.52 29.896C29.288 29.896 30.02 29.644 30.716 29.14C31.412 28.612 32.288 27.724 33.344 26.476C33.632 26.14 33.956 25.972 34.316 25.972ZM10.052 22.66C9.236 22.66 8.672 22.468 8.36 22.084C8.072 21.7 7.928 21.268 7.928 20.788C7.928 20.212 8.108 19.756 8.468 19.42C8.852 19.084 9.284 18.916 9.764 18.916H10.664C11.048 16.564 11.408 14.536 11.744 12.832C12.056 11.272 13.064 10.492 14.768 10.492C16.136 10.492 16.82 11.104 16.82 12.328C16.82 12.592 16.808 12.796 16.784 12.94L15.704 18.916C17 18.844 18.176 18.532 19.232 17.98C20.312 17.428 21.164 16.66 21.788 15.676C22.436 14.692 22.76 13.576 22.76 12.328C22.76 10.816 22.244 9.628 21.212 8.764C20.18 7.9 18.668 7.468 16.676 7.468C14.324 7.468 12.26 8.056 10.484 9.232C8.732 10.384 7.364 12.112 6.38 14.416C5.396 16.696 4.904 19.48 4.904 22.768C4.904 24.304 5.06 25.624 5.372 26.728C5.684 27.832 6.068 28.66 6.524 29.212C6.98 29.764 7.412 30.04 7.82 30.04C8.132 30.04 8.384 29.884 8.576 29.572C8.792 29.26 8.96 28.756 9.08 28.06L10.052 22.66ZM37.1198 14.848C36.1118 14.848 35.3558 14.62 34.8518 14.164C34.3478 13.684 34.0958 13.024 34.0958 12.184C34.0958 11.344 34.4198 10.648 35.0678 10.096C35.7398 9.52 36.5678 9.232 37.5518 9.232C38.4398 9.232 39.1598 9.448 39.7118 9.88C40.2638 10.312 40.5398 10.924 40.5398 11.716C40.5398 12.676 40.2278 13.444 39.6038 14.02C38.9798 14.572 38.1518 14.848 37.1198 14.848ZM36.8318 34.18C35.2718 34.18 34.1318 33.628 33.4118 32.524C32.7158 31.42 32.3678 29.956 32.3678 28.132C32.3678 27.052 32.4998 25.672 32.7638 23.992C33.0518 22.288 33.4118 20.704 33.8438 19.24C34.0598 18.472 34.3478 17.944 34.7078 17.656C35.0678 17.368 35.6438 17.224 36.4358 17.224C37.6598 17.224 38.2718 17.632 38.2718 18.448C38.2718 19.048 38.0438 20.44 37.5878 22.624C37.0118 25.264 36.7238 27.052 36.7238 27.988C36.7238 28.708 36.8198 29.26 37.0118 29.644C37.2038 30.028 37.5278 30.22 37.9838 30.22C38.4158 30.22 38.9558 29.92 39.6038 29.32C40.2518 28.72 41.1158 27.772 42.1958 26.476C42.4838 26.14 42.8078 25.972 43.1678 25.972C43.4798 25.972 43.7198 26.116 43.8878 26.404C44.0798 26.692 44.1758 27.088 44.1758 27.592C44.1758 28.552 43.9478 29.296 43.4918 29.824C41.1158 32.728 38.8958 34.18 36.8318 34.18ZM59.6952 26.044C60.0072 26.044 60.2472 26.2 60.4152 26.512C60.6072 26.8 60.7032 27.172 60.7032 27.628C60.7032 28.18 60.6192 28.612 60.4512 28.924C60.2832 29.236 60.0192 29.512 59.6592 29.752C57.5952 31.144 56.0832 32.176 55.1232 32.848L52.8192 34.396C51.9072 39.364 50.7072 43.264 49.2192 46.096C47.7552 48.952 45.8832 50.38 43.6032 50.38C42.3792 50.38 41.3832 49.996 40.6152 49.228C39.8472 48.484 39.4632 47.5 39.4632 46.276C39.4632 44.572 40.1352 42.736 41.4792 40.768C42.8232 38.824 45.3432 36.424 49.0392 33.568L49.2552 32.164C48.8472 32.812 48.3072 33.316 47.6352 33.676C46.9872 34.012 46.3392 34.18 45.6912 34.18C44.2032 34.18 43.0152 33.64 42.1272 32.56C41.2392 31.48 40.7952 30.064 40.7952 28.312C40.7952 26.392 41.2392 24.58 42.1272 22.876C43.0152 21.148 44.1912 19.768 45.6552 18.736C47.1432 17.68 48.7152 17.152 50.3712 17.152C50.8992 17.152 51.2472 17.26 51.4152 17.476C51.6072 17.668 51.7632 18.028 51.8832 18.556C52.3392 18.46 52.8672 18.412 53.4672 18.412C54.0672 18.412 54.4872 18.508 54.7272 18.7C54.9912 18.868 55.1232 19.216 55.1232 19.744C55.1232 20.032 55.1112 20.26 55.0872 20.428C54.9912 21.172 54.6912 23.056 54.1872 26.08C54.0912 26.656 53.9832 27.292 53.8632 27.988C53.7672 28.66 53.6592 29.38 53.5392 30.148C55.3872 28.708 57.1632 27.436 58.8672 26.332C59.1792 26.14 59.4552 26.044 59.6952 26.044ZM46.9872 30.544C47.5392 30.544 48.0672 30.208 48.5712 29.536C49.0752 28.864 49.4352 27.904 49.6512 26.656L50.8032 20.5C49.8192 20.524 48.9072 20.908 48.0672 21.652C47.2272 22.372 46.5552 23.332 46.0512 24.532C45.5472 25.732 45.2952 27.004 45.2952 28.348C45.2952 29.092 45.4392 29.644 45.7272 30.004C46.0392 30.364 46.4592 30.544 46.9872 30.544ZM43.9992 46.888C44.5992 46.888 45.2712 46.168 46.0152 44.728C46.7832 43.288 47.5152 40.996 48.2112 37.852C46.3632 39.436 45.0312 40.864 44.2152 42.136C43.3992 43.408 42.9912 44.524 42.9912 45.484C42.9912 45.892 43.0632 46.228 43.2072 46.492C43.3752 46.756 43.6392 46.888 43.9992 46.888ZM78.4697 25.972C78.7817 25.972 79.0217 26.116 79.1897 26.404C79.3817 26.692 79.4777 27.088 79.4777 27.592C79.4777 28.552 79.2497 29.296 78.7937 29.824C77.6897 31.096 76.5497 32.14 75.3737 32.956C74.2217 33.772 72.9017 34.18 71.4137 34.18C70.1897 34.18 69.2657 33.832 68.6417 33.136C68.0177 32.416 67.7057 31.384 67.7057 30.04C67.7057 29.368 67.8737 28.168 68.2097 26.44C68.5217 24.928 68.6777 23.884 68.6777 23.308C68.6777 22.924 68.5457 22.732 68.2817 22.732C67.9697 22.732 67.5257 23.14 66.9497 23.956C66.3737 24.748 65.7977 25.804 65.2217 27.124C64.6457 28.444 64.1777 29.836 63.8177 31.3C63.3617 33.22 62.2337 34.18 60.4337 34.18C59.7137 34.18 59.2337 33.928 58.9937 33.424C58.7777 32.896 58.6697 31.96 58.6697 30.616C58.6697 29.848 58.6817 29.236 58.7057 28.78L58.7417 25.9C58.7417 22.204 59.1137 18.352 59.8577 14.344C60.6257 10.336 61.7417 6.976 63.2057 4.264C64.6937 1.528 66.4697 0.159998 68.5337 0.159998C69.6377 0.159998 70.5257 0.639998 71.1977 1.6C71.8937 2.536 72.2417 3.76 72.2417 5.272C72.2417 7.696 71.5337 10.216 70.1177 12.832C68.7017 15.424 66.3977 18.46 63.2057 21.94C63.1337 23.188 63.0977 24.472 63.0977 25.792C63.8897 23.752 64.7657 22.096 65.7257 20.824C66.7097 19.528 67.6697 18.604 68.6057 18.052C69.5657 17.5 70.4417 17.224 71.2337 17.224C72.7937 17.224 73.5737 18.004 73.5737 19.564C73.5737 20.5 73.3097 22.192 72.7817 24.64C72.3257 26.728 72.0977 28.108 72.0977 28.78C72.0977 29.74 72.4457 30.22 73.1417 30.22C73.6217 30.22 74.1857 29.932 74.8337 29.356C75.5057 28.756 76.3937 27.796 77.4977 26.476C77.7857 26.14 78.1097 25.972 78.4697 25.972ZM67.7777 3.724C67.3457 3.724 66.8657 4.348 66.3377 5.596C65.8097 6.82 65.2937 8.488 64.7897 10.6C64.3097 12.688 63.9137 14.968 63.6017 17.44C65.0897 15.688 66.3137 13.78 67.2737 11.716C68.2577 9.652 68.7497 7.78 68.7497 6.1C68.7497 5.332 68.6657 4.744 68.4977 4.336C68.3297 3.928 68.0897 3.724 67.7777 3.724ZM92.616 25.972C92.928 25.972 93.168 26.116 93.336 26.404C93.528 26.692 93.624 27.088 93.624 27.592C93.624 28.552 93.396 29.296 92.94 29.824C91.908 31.096 90.78 32.14 89.556 32.956C88.332 33.772 86.928 34.18 85.344 34.18C80.448 34.18 78 30.736 78 23.848C78 22.792 78.036 21.724 78.108 20.644H76.704C75.984 20.644 75.492 20.512 75.228 20.248C74.988 19.984 74.868 19.564 74.868 18.988C74.868 17.644 75.408 16.972 76.488 16.972H78.54C78.948 14.332 79.572 11.92 80.412 9.736C81.252 7.552 82.26 5.812 83.436 4.516C84.636 3.22 85.92 2.572 87.288 2.572C88.296 2.572 89.088 3.016 89.664 3.904C90.24 4.792 90.528 5.908 90.528 7.252C90.528 10.972 88.968 14.212 85.848 16.972H89.88C90.264 16.972 90.54 17.056 90.708 17.224C90.876 17.392 90.96 17.704 90.96 18.16C90.96 19.816 89.604 20.644 86.892 20.644H82.5C82.452 21.844 82.428 22.78 82.428 23.452C82.428 25.948 82.716 27.7 83.292 28.708C83.892 29.716 84.828 30.22 86.1 30.22C87.132 30.22 88.044 29.908 88.836 29.284C89.628 28.66 90.564 27.724 91.644 26.476C91.932 26.14 92.256 25.972 92.616 25.972ZM86.316 6.028C85.956 6.028 85.548 6.484 85.092 7.396C84.66 8.284 84.24 9.532 83.832 11.14C83.448 12.724 83.124 14.488 82.86 16.432C84.276 15.208 85.332 13.84 86.028 12.328C86.748 10.792 87.108 9.4 87.108 8.152C87.108 6.736 86.844 6.028 86.316 6.028ZM120.213 10.96C120.213 13 119.493 14.764 118.053 16.252C116.613 17.716 114.513 18.772 111.753 19.42C113.241 19.828 114.369 20.5 115.137 21.436C115.905 22.348 116.289 23.404 116.289 24.604C116.289 26.5 115.689 28.144 114.489 29.536C113.313 30.928 111.585 32.008 109.305 32.776C107.025 33.52 104.277 33.892 101.061 33.892C99.8608 33.892 98.9008 33.856 98.1808 33.784C98.1568 34.456 97.8688 34.96 97.3168 35.296C96.7648 35.632 96.0568 35.8 95.1928 35.8C94.3288 35.8 93.7288 35.608 93.3928 35.224C93.0808 34.84 92.9488 34.276 92.9968 33.532C93.2128 30.172 93.6328 26.656 94.2568 22.984C94.8808 19.288 95.6728 15.724 96.6328 12.292C96.8008 11.692 97.1368 11.272 97.6408 11.032C98.1448 10.792 98.8048 10.672 99.6208 10.672C101.085 10.672 101.817 11.08 101.817 11.896C101.817 12.232 101.745 12.616 101.601 13.048C100.977 14.92 100.353 17.464 99.7288 20.68C99.1048 23.872 98.6608 26.92 98.3968 29.824C99.5488 29.92 100.485 29.968 101.205 29.968C104.565 29.968 107.025 29.488 108.585 28.528C110.169 27.544 110.961 26.296 110.961 24.784C110.961 23.728 110.505 22.84 109.593 22.12C108.705 21.4 107.205 21.004 105.093 20.932C104.613 20.908 104.277 20.788 104.085 20.572C103.893 20.356 103.797 20.008 103.797 19.528C103.797 18.832 103.941 18.268 104.229 17.836C104.517 17.404 105.045 17.176 105.813 17.152C107.517 17.104 109.053 16.852 110.421 16.396C111.813 15.94 112.905 15.304 113.697 14.488C114.489 13.648 114.885 12.676 114.885 11.572C114.885 10.18 114.201 9.088 112.833 8.296C111.465 7.48 109.365 7.072 106.533 7.072C103.965 7.072 101.481 7.408 99.0808 8.08C96.6808 8.728 94.6408 9.556 92.9608 10.564C92.1928 11.02 91.5448 11.248 91.0168 11.248C90.5848 11.248 90.2488 11.104 90.0088 10.816C89.7928 10.504 89.6848 10.12 89.6848 9.664C89.6848 9.064 89.8048 8.548 90.0448 8.116C90.3088 7.684 90.9208 7.192 91.8808 6.64C93.8968 5.488 96.2608 4.588 98.9728 3.94C101.685 3.292 104.457 2.968 107.289 2.968C111.633 2.968 114.873 3.7 117.009 5.164C119.145 6.628 120.213 8.56 120.213 10.96ZM122.323 34.18C121.411 34.18 120.763 33.7 120.379 32.74C120.019 31.78 119.839 30.244 119.839 28.132C119.839 25.012 120.283 22.048 121.171 19.24C121.387 18.544 121.735 18.04 122.215 17.728C122.719 17.392 123.415 17.224 124.303 17.224C124.783 17.224 125.119 17.284 125.311 17.404C125.503 17.524 125.599 17.752 125.599 18.088C125.599 18.472 125.419 19.336 125.059 20.68C124.819 21.64 124.627 22.48 124.483 23.2C124.339 23.92 124.219 24.808 124.123 25.864C124.915 23.8 125.803 22.12 126.787 20.824C127.771 19.528 128.731 18.604 129.667 18.052C130.627 17.5 131.503 17.224 132.295 17.224C133.855 17.224 134.635 18.004 134.635 19.564C134.635 19.876 134.527 20.632 134.311 21.832C134.119 22.792 134.023 23.392 134.023 23.632C134.023 24.472 134.323 24.892 134.923 24.892C135.595 24.892 136.459 24.364 137.515 23.308C137.827 22.996 138.151 22.84 138.487 22.84C138.799 22.84 139.039 22.984 139.207 23.272C139.399 23.536 139.495 23.896 139.495 24.352C139.495 25.24 139.255 25.936 138.775 26.44C138.103 27.136 137.311 27.736 136.399 28.24C135.511 28.72 134.563 28.96 133.555 28.96C132.283 28.96 131.311 28.636 130.639 27.988C129.991 27.34 129.667 26.464 129.667 25.36C129.667 25 129.703 24.64 129.775 24.28C129.823 23.8 129.847 23.476 129.847 23.308C129.847 22.924 129.715 22.732 129.451 22.732C129.091 22.732 128.611 23.14 128.011 23.956C127.435 24.748 126.859 25.804 126.283 27.124C125.707 28.444 125.239 29.836 124.879 31.3C124.615 32.428 124.303 33.196 123.943 33.604C123.607 33.988 123.067 34.18 122.323 34.18ZM140.578 34.18C139.09 34.18 137.902 33.64 137.014 32.56C136.126 31.48 135.682 30.064 135.682 28.312C135.682 26.392 136.126 24.58 137.014 22.876C137.902 21.148 139.078 19.768 140.542 18.736C142.03 17.68 143.602 17.152 145.258 17.152C145.786 17.152 146.134 17.26 146.302 17.476C146.494 17.668 146.65 18.028 146.77 18.556C147.274 18.46 147.802 18.412 148.354 18.412C149.53 18.412 150.118 18.832 150.118 19.672C150.118 20.176 149.938 21.376 149.578 23.272C149.026 26.032 148.75 27.952 148.75 29.032C148.75 29.392 148.834 29.68 149.002 29.896C149.194 30.112 149.434 30.22 149.722 30.22C150.178 30.22 150.73 29.932 151.378 29.356C152.026 28.756 152.902 27.796 154.006 26.476C154.294 26.14 154.618 25.972 154.978 25.972C155.29 25.972 155.53 26.116 155.698 26.404C155.89 26.692 155.986 27.088 155.986 27.592C155.986 28.552 155.758 29.296 155.302 29.824C154.318 31.048 153.274 32.08 152.17 32.92C151.066 33.76 149.998 34.18 148.966 34.18C148.174 34.18 147.442 33.916 146.77 33.388C146.122 32.836 145.63 32.092 145.294 31.156C144.046 33.172 142.474 34.18 140.578 34.18ZM141.874 30.544C142.402 30.544 142.906 30.232 143.386 29.608C143.866 28.984 144.214 28.156 144.43 27.124L145.762 20.5C144.754 20.524 143.818 20.908 142.954 21.652C142.114 22.372 141.442 23.332 140.938 24.532C140.434 25.732 140.182 27.004 140.182 28.348C140.182 29.092 140.326 29.644 140.614 30.004C140.926 30.364 141.346 30.544 141.874 30.544ZM157.776 14.848C156.768 14.848 156.012 14.62 155.508 14.164C155.004 13.684 154.752 13.024 154.752 12.184C154.752 11.344 155.076 10.648 155.724 10.096C156.396 9.52 157.224 9.232 158.208 9.232C159.096 9.232 159.816 9.448 160.368 9.88C160.92 10.312 161.196 10.924 161.196 11.716C161.196 12.676 160.884 13.444 160.26 14.02C159.636 14.572 158.808 14.848 157.776 14.848ZM157.488 34.18C155.928 34.18 154.788 33.628 154.068 32.524C153.372 31.42 153.024 29.956 153.024 28.132C153.024 27.052 153.156 25.672 153.42 23.992C153.708 22.288 154.068 20.704 154.5 19.24C154.716 18.472 155.004 17.944 155.364 17.656C155.724 17.368 156.3 17.224 157.092 17.224C158.316 17.224 158.928 17.632 158.928 18.448C158.928 19.048 158.7 20.44 158.244 22.624C157.668 25.264 157.38 27.052 157.38 27.988C157.38 28.708 157.476 29.26 157.668 29.644C157.86 30.028 158.184 30.22 158.64 30.22C159.072 30.22 159.612 29.92 160.26 29.32C160.908 28.72 161.772 27.772 162.852 26.476C163.14 26.14 163.464 25.972 163.824 25.972C164.136 25.972 164.376 26.116 164.544 26.404C164.736 26.692 164.832 27.088 164.832 27.592C164.832 28.552 164.604 29.296 164.148 29.824C161.772 32.728 159.552 34.18 157.488 34.18ZM164.475 34.18C163.563 34.18 162.915 33.7 162.531 32.74C162.171 31.78 161.991 30.244 161.991 28.132C161.991 25.012 162.435 22.048 163.323 19.24C163.539 18.544 163.887 18.04 164.367 17.728C164.871 17.392 165.567 17.224 166.455 17.224C166.935 17.224 167.271 17.284 167.463 17.404C167.655 17.524 167.751 17.752 167.751 18.088C167.751 18.472 167.571 19.336 167.211 20.68C166.971 21.64 166.779 22.48 166.635 23.2C166.491 23.92 166.371 24.808 166.275 25.864C167.067 23.8 167.955 22.12 168.939 20.824C169.923 19.528 170.883 18.604 171.819 18.052C172.779 17.5 173.655 17.224 174.447 17.224C175.215 17.224 175.791 17.428 176.175 17.836C176.583 18.22 176.787 18.796 176.787 19.564C176.787 20.188 176.655 21.364 176.391 23.092C176.151 24.556 175.959 25.948 175.815 27.268C175.671 28.564 175.599 30.016 175.599 31.624C175.599 32.536 175.407 33.196 175.023 33.604C174.663 33.988 174.063 34.18 173.223 34.18C172.431 34.18 171.855 33.976 171.495 33.568C171.135 33.16 170.955 32.548 170.955 31.732C170.955 30.772 171.123 29.188 171.459 26.98C171.747 25.06 171.891 23.836 171.891 23.308C171.891 22.924 171.759 22.732 171.495 22.732C171.183 22.732 170.739 23.14 170.163 23.956C169.611 24.748 169.035 25.804 168.435 27.124C167.859 28.444 167.391 29.836 167.031 31.3C166.767 32.428 166.455 33.196 166.095 33.604C165.759 33.988 165.219 34.18 164.475 34.18Z" fill="#E02041"/>
</svg>
